<?xml version="1.0" encoding="utf-8"?>
<!-- Generator: Adobe Illustrator 28.0.0, SVG Export Plug-In . SVG Version: 6.00 Build 0)  -->
<svg version="1.1" id="Capa_1" xmlns="http://www.w3.org/2000/svg" xmlns:xlink="http://www.w3.org/1999/xlink" x="0px" y="0px"
	 viewBox="0 0 32 32" style="enable-background:new 0 0 32 32;" xml:space="preserve">
<style type="text/css">
	.st0{fill:#F7F2ED;}
	.st1{display:none;}
	.st2{display:inline;}
	.st3{fill:#FFFFFF;}
	.st4{fill:#FFFFFF;fill-opacity:0.9;}
	.st5{fill:#FFFFFF;fill-opacity:0.7;}
	.st6{fill:#282829;}
	.st7{fill:#9D9FA2;}
	.st8{fill:#C8AB51;}
</style>
<path class="st0" d="M0,8.4C0,3.8,3.8,0,8.4,0h15.2C28.2,0,32,3.8,32,8.4v15.2c0,4.7-3.8,8.4-8.4,8.4H8.4C3.8,32,0,28.2,0,23.6V8.4z
	"/>
<g class="st1">
	<g class="st2">
		<path class="st3" d="M8.4,8.4c0-0.9,0.8-1.7,1.7-1.7s1.7,0.8,1.7,1.7v15.2c0,0.9-0.8,1.7-1.7,1.7s-1.7-0.8-1.7-1.7V8.4z"/>
	</g>
	<g class="st2">
		<path shape-rendering="crispEdges" class="st4" d="M14.7,15.2c0-0.9,0.8-1.7,1.7-1.7s1.7,0.8,1.7,1.7v8.4c0,0.9-0.8,1.7-1.7,1.7
			c-0.9,0-1.7-0.8-1.7-1.7V15.2z"/>
	</g>
	<g class="st2">
		<path shape-rendering="crispEdges" class="st5" d="M21.1,10.9c0-0.9,0.8-1.7,1.7-1.7c0.9,0,1.7,0.8,1.7,1.7v12.6
			c0,0.9-0.8,1.7-1.7,1.7c-0.9,0-1.7-0.8-1.7-1.7V10.9z"/>
	</g>
</g>
<g>
	<path class="st6" d="M14.1,6.6c1.2-0.4,2.6-0.2,3.6,0.5c0.6,0.4,1,0.9,1.3,1.5c2.5,5,5,9.9,7.4,14.9c-0.7,0-1.4,0-2.1,0
		c-0.3,0-0.7,0-1,0c-1.6-0.2-3.2-0.9-4.5-1.8c-2.2-1.5-3.8-3.7-4.5-6.3c0.4-0.5,0.7-1.1,0.7-1.8c0-0.5-0.1-1.1-0.4-1.6
		c-0.3-0.6-0.9-1-1.6-1.2c-0.7-0.2-1.6-0.1-2.2,0.3c-0.4,0.2-0.7,0.6-1,0.9c0.4-0.9,0.9-1.7,1.3-2.6c0.3-0.5,0.5-1.1,0.9-1.6
		C12.7,7.3,13.3,6.9,14.1,6.6z"/>
	<g>
		<path class="st7" d="M26.4,6.7c0.1,0,0.2-0.1,0.3-0.1c1.7,0,3.3,0,5,0c-1.4,2.7-2.7,5.5-4.1,8.2c-1.4,0-2.8-0.8-3.5-2
			c-0.5-0.9-0.7-1.9-0.5-2.9c0.1-0.7,0.5-1.4,0.9-2C25,7.4,25.7,7,26.4,6.7z"/>
	</g>
	<g>
		<path class="st8" d="M4.3,23.4c1.4-2.7,2.7-5.5,4.1-8.2c1.4,0,2.8,0.8,3.5,2c0.8,1.2,0.8,2.9,0.1,4.1c-0.5,0.9-1.3,1.6-2.3,2
			c-0.1,0-0.2,0.1-0.3,0.1C7.7,23.4,6,23.4,4.3,23.4z"/>
	</g>
</g>
</svg>
