<?xml version="1.0" encoding="utf-8"?>
<!-- Generator: Adobe Illustrator 28.0.0, SVG Export Plug-In . SVG Version: 6.00 Build 0)  -->
<svg version="1.1" id="Capa_1" xmlns="http://www.w3.org/2000/svg" xmlns:xlink="http://www.w3.org/1999/xlink" x="0px" y="0px"
	 viewBox="0 0 32 32" style="enable-background:new 0 0 32 32;" xml:space="preserve">
<style type="text/css">
	.st0{fill:#F7F2ED;}
	.st1{display:none;}
	.st2{display:inline;}
	.st3{fill:#FFFFFF;}
	.st4{fill:#FFFFFF;fill-opacity:0.9;}
	.st5{fill:#FFFFFF;fill-opacity:0.7;}
	.st6{fill:#DA261B;}
	.st7{fill:#067B35;}
	.st8{fill:#F4E518;}
</style>
<path class="st0" d="M0,8.4C0,3.8,3.8,0,8.4,0h15.2C28.2,0,32,3.8,32,8.4v15.2c0,4.7-3.8,8.4-8.4,8.4H8.4C3.8,32,0,28.2,0,23.6V8.4z
	"/>
<g class="st1">
	<g class="st2">
		<path class="st3" d="M8.4,8.4c0-0.9,0.8-1.7,1.7-1.7c0.9,0,1.7,0.8,1.7,1.7v15.2c0,0.9-0.8,1.7-1.7,1.7c-0.9,0-1.7-0.8-1.7-1.7
			V8.4z"/>
	</g>
	<g class="st2">
		<path shape-rendering="crispEdges" class="st4" d="M14.7,15.2c0-0.9,0.8-1.7,1.7-1.7c0.9,0,1.7,0.8,1.7,1.7v8.4
			c0,0.9-0.8,1.7-1.7,1.7c-0.9,0-1.7-0.8-1.7-1.7V15.2z"/>
	</g>
	<g class="st2">
		<path shape-rendering="crispEdges" class="st5" d="M21.1,10.9c0-0.9,0.8-1.7,1.7-1.7c0.9,0,1.7,0.8,1.7,1.7v12.6
			c0,0.9-0.8,1.7-1.7,1.7c-0.9,0-1.7-0.8-1.7-1.7V10.9z"/>
	</g>
</g>
<g class="st1">
	<g class="st2">
		<path class="st6" d="M14.4,2.6c0.5-0.2,1-0.2,1.5,0c0.4,0.2,0.7,0.5,0.9,0.9c0.7,1.5,1.5,3,2.3,4.5c0.1,0.2,0.2,0.3,0.2,0.5
			c0.5,1,1,2,1.5,3c-0.5,1-1,2-1.5,2.9c0,0.1-0.1,0.2-0.1,0.3c-0.2,0.4-0.4,0.9-0.7,1.3c-0.7-1.5-1.5-3-2.2-4.5
			c-0.1-0.3-0.4-0.5-0.6-0.6c-0.5-0.2-1.1-0.1-1.5,0.3c-0.1,0.1-0.2,0.2-0.3,0.4c-1,2-2,4-3,5.9c-0.1,0.3-0.2,0.5-0.4,0.7
			c-1.1,2.3-2.3,4.5-3.4,6.8c-1.5,0-3.1,0-4.6,0c2.8-5.5,5.5-11,8.3-16.5c0.1-0.2,0.1-0.3,0.2-0.5C12,6.5,12.8,5,13.5,3.4
			C13.7,3,14.1,2.7,14.4,2.6z"/>
	</g>
	<g class="st2">
		<path class="st7" d="M21.2,20c0.7-1.3,1.3-2.6,2-3.9c0.2,0.3,0.3,0.6,0.4,0.9c0.5,1,1,2,1.5,3.1c0.8,1.6,1.6,3.2,2.5,4.9
			c0,0.1,0.1,0.2,0.1,0.3c-2.2,0-4.5,0-6.7,0c-0.8,0-1.6,0-2.4,0l0,0c0.2-0.5,0.5-0.9,0.7-1.4c0.1-0.2,0.2-0.3,0.2-0.5
			C20.1,22.1,20.6,21,21.2,20z"/>
	</g>
	<g class="st2">
		<path class="st8" d="M15,19.2c0.3-0.1,0.6,0.1,0.8,0.3c0.7,1.3,1.3,2.6,1.9,3.9c0.3,0.6,0.6,1.2,0.9,1.8l0,0c-2.3,0-4.6,0-6.8,0
			c0.9-1.9,1.9-3.7,2.8-5.6C14.7,19.3,14.8,19.2,15,19.2z"/>
	</g>
</g>
<g>
	<g>
		<path class="st6" d="M15.5,6.8c0.3-0.1,0.7-0.1,1.1,0c0.3,0.1,0.5,0.4,0.7,0.6c0.5,1.1,1.1,2.2,1.6,3.3c0.1,0.1,0.1,0.3,0.2,0.4
			c0.4,0.7,0.7,1.5,1.1,2.2c-0.4,0.7-0.7,1.4-1.1,2.1c0,0.1,0,0.1-0.1,0.2c-0.2,0.3-0.3,0.6-0.5,1c-0.5-1.1-1.1-2.2-1.6-3.2
			c-0.1-0.2-0.3-0.3-0.5-0.4c-0.4-0.2-0.8-0.1-1.1,0.2c-0.1,0.1-0.2,0.2-0.2,0.3c-0.7,1.4-1.4,2.9-2.2,4.3c-0.1,0.2-0.2,0.4-0.3,0.5
			c-0.8,1.6-1.6,3.3-2.5,4.9c-1.1,0-2.2,0-3.3,0c2-4,4-8,6-12c0-0.1,0.1-0.2,0.2-0.4c0.6-1.1,1.1-2.3,1.7-3.4
			C14.9,7.2,15.2,7,15.5,6.8z"/>
	</g>
	<g>
		<path class="st7" d="M20.3,19.5c0.5-1,0.9-1.9,1.4-2.9c0.1,0.2,0.2,0.4,0.3,0.6c0.4,0.7,0.7,1.5,1.1,2.2c0.6,1.2,1.2,2.4,1.8,3.5
			c0,0.1,0.1,0.1,0.1,0.2c-1.6,0-3.2,0-4.9,0c-0.6,0-1.2,0-1.7,0l0,0c0.2-0.3,0.3-0.7,0.5-1c0-0.1,0.1-0.3,0.2-0.4
			C19.6,21.1,20,20.3,20.3,19.5z"/>
	</g>
	<g>
		<path class="st8" d="M15.9,18.9c0.2-0.1,0.5,0,0.6,0.2c0.5,0.9,0.9,1.9,1.4,2.8c0.2,0.4,0.4,0.9,0.6,1.3l0,0c-1.7,0-3.3,0-5,0
			c0.7-1.4,1.4-2.7,2-4.1C15.6,19,15.7,18.9,15.9,18.9z"/>
	</g>
</g>
</svg>
